<?xml version="1.0" encoding="UTF-8" standalone="no"?>
<!DOCTYPE svg PUBLIC "-//W3C//DTD SVG 1.1//EN"
 "http://www.w3.org/Graphics/SVG/1.1/DTD/svg11.dtd">
<!-- Generated by graphviz version 2.47.0 (20210316.0004)
 -->
<!-- Title: dependencies Pages: 1 -->
<svg width="504pt" height="211pt"
 viewBox="0.00 0.00 504.00 211.00" xmlns="http://www.w3.org/2000/svg" xmlns:xlink="http://www.w3.org/1999/xlink">
<g id="graph0" class="graph" transform="scale(1 1) rotate(0) translate(4 207)">
<title>dependencies</title>
<polygon fill="white" stroke="transparent" points="-4,4 -4,-207 500,-207 500,4 -4,4"/>
<text text-anchor="start" x="227.01" y="-42.4" font-family="Times-12" font-weight="bold" font-size="14.00">Legend</text>
<polygon fill="#ffffb3" stroke="transparent" points="14,-10 14,-30 34,-30 34,-10 14,-10"/>
<text text-anchor="start" x="37.63" y="-15.4" font-family="Times-12" font-size="14.00"> &#160;Declarations</text>
<polygon fill="#8dd3c7" stroke="transparent" points="127,-10 127,-30 147,-30 147,-10 127,-10"/>
<text text-anchor="start" x="150.73" y="-15.4" font-family="Times-12" font-size="14.00"> &#160;Module</text>
<polygon fill="#80b1d3" stroke="transparent" points="213,-10 213,-30 233,-30 233,-10 213,-10"/>
<text text-anchor="start" x="236.78" y="-15.4" font-family="Times-12" font-size="14.00"> &#160;Bootstrap</text>
<polygon fill="#fdb462" stroke="transparent" points="310,-10 310,-30 330,-30 330,-10 310,-10"/>
<text text-anchor="start" x="333.67" y="-15.4" font-family="Times-12" font-size="14.00"> &#160;Providers</text>
<polygon fill="#fb8072" stroke="transparent" points="406,-10 406,-30 426,-30 426,-10 406,-10"/>
<text text-anchor="start" x="429.73" y="-15.4" font-family="Times-12" font-size="14.00"> &#160;Exports</text>
<g id="clust1" class="cluster">
<title>cluster_ResidentnotificationModule</title>
<polygon fill="none" stroke="black" stroke-dasharray="1,5" points="53,-70 53,-195 443,-195 443,-70 53,-70"/>
</g>
<g id="clust3" class="cluster">
<title>cluster_ResidentnotificationModule_imports</title>
<polygon fill="none" stroke="black" points="321,-78 321,-130 435,-130 435,-78 321,-78"/>
</g>
<g id="clust6" class="cluster">
<title>cluster_ResidentnotificationModule_providers</title>
<polygon fill="none" stroke="black" points="61,-78 61,-130 313,-130 313,-78 61,-78"/>
</g>
<!-- PrismaModule -->
<g id="node1" class="node">
<title>PrismaModule</title>
<polygon fill="#8dd3c7" stroke="black" points="427.43,-122 424.43,-126 403.43,-126 400.43,-122 328.57,-122 328.57,-86 427.43,-86 427.43,-122"/>
<text text-anchor="middle" x="378" y="-99.8" font-family="Times,serif" font-size="14.00">PrismaModule</text>
</g>
<!-- ResidentnotificationModule -->
<g id="node2" class="node">
<title>ResidentnotificationModule</title>
<polygon fill="#8dd3c7" stroke="black" points="353.58,-187 350.58,-191 329.58,-191 326.58,-187 180.42,-187 180.42,-151 353.58,-151 353.58,-187"/>
<text text-anchor="middle" x="267" y="-164.8" font-family="Times,serif" font-size="14.00">ResidentnotificationModule</text>
</g>
<!-- PrismaModule&#45;&gt;ResidentnotificationModule -->
<g id="edge1" class="edge">
<title>PrismaModule&#45;&gt;ResidentnotificationModule</title>
<path fill="none" stroke="black" d="M341.16,-122.11C341.16,-122.11 341.16,-140.99 341.16,-140.99"/>
<polygon fill="black" stroke="black" points="337.66,-140.99 341.16,-150.99 344.66,-140.99 337.66,-140.99"/>
</g>
<!-- ResidentnotificationService -->
<g id="node3" class="node">
<title>ResidentnotificationService</title>
<ellipse fill="#fdb462" stroke="black" cx="187" cy="-104" rx="118.11" ry="18"/>
<text text-anchor="middle" x="187" y="-99.8" font-family="Times,serif" font-size="14.00">ResidentnotificationService</text>
</g>
<!-- ResidentnotificationService&#45;&gt;ResidentnotificationModule -->
<g id="edge2" class="edge">
<title>ResidentnotificationService&#45;&gt;ResidentnotificationModule</title>
<path fill="none" stroke="black" d="M242.88,-120.07C242.88,-120.07 242.88,-140.82 242.88,-140.82"/>
<polygon fill="black" stroke="black" points="239.38,-140.82 242.88,-150.82 246.38,-140.82 239.38,-140.82"/>
</g>
</g>
</svg>
