<?xml version="1.0" encoding="UTF-8" standalone="no"?>
<!DOCTYPE svg PUBLIC "-//W3C//DTD SVG 1.1//EN"
 "http://www.w3.org/Graphics/SVG/1.1/DTD/svg11.dtd">
<!-- Generated by graphviz version 2.47.0 (20210316.0004)
 -->
<!-- Title: dependencies Pages: 1 -->
<svg width="504pt" height="211pt"
 viewBox="0.00 0.00 504.00 211.00" xmlns="http://www.w3.org/2000/svg" xmlns:xlink="http://www.w3.org/1999/xlink">
<g id="graph0" class="graph" transform="scale(1 1) rotate(0) translate(4 207)">
<title>dependencies</title>
<polygon fill="white" stroke="transparent" points="-4,4 -4,-207 500,-207 500,4 -4,4"/>
<text text-anchor="start" x="227.01" y="-42.4" font-family="Times-12" font-weight="bold" font-size="14.00">Legend</text>
<polygon fill="#ffffb3" stroke="transparent" points="14,-10 14,-30 34,-30 34,-10 14,-10"/>
<text text-anchor="start" x="37.63" y="-15.4" font-family="Times-12" font-size="14.00"> &#160;Declarations</text>
<polygon fill="#8dd3c7" stroke="transparent" points="127,-10 127,-30 147,-30 147,-10 127,-10"/>
<text text-anchor="start" x="150.73" y="-15.4" font-family="Times-12" font-size="14.00"> &#160;Module</text>
<polygon fill="#80b1d3" stroke="transparent" points="213,-10 213,-30 233,-30 233,-10 213,-10"/>
<text text-anchor="start" x="236.78" y="-15.4" font-family="Times-12" font-size="14.00"> &#160;Bootstrap</text>
<polygon fill="#fdb462" stroke="transparent" points="310,-10 310,-30 330,-30 330,-10 310,-10"/>
<text text-anchor="start" x="333.67" y="-15.4" font-family="Times-12" font-size="14.00"> &#160;Providers</text>
<polygon fill="#fb8072" stroke="transparent" points="406,-10 406,-30 426,-30 426,-10 406,-10"/>
<text text-anchor="start" x="429.73" y="-15.4" font-family="Times-12" font-size="14.00"> &#160;Exports</text>
<g id="clust1" class="cluster">
<title>cluster_ResidentModule</title>
<polygon fill="none" stroke="black" stroke-dasharray="1,5" points="97,-70 97,-195 399,-195 399,-70 97,-70"/>
</g>
<g id="clust6" class="cluster">
<title>cluster_ResidentModule_providers</title>
<polygon fill="none" stroke="black" points="227,-78 227,-130 391,-130 391,-78 227,-78"/>
</g>
<g id="clust3" class="cluster">
<title>cluster_ResidentModule_imports</title>
<polygon fill="none" stroke="black" points="105,-78 105,-130 219,-130 219,-78 105,-78"/>
</g>
<!-- PrismaModule -->
<g id="node1" class="node">
<title>PrismaModule</title>
<polygon fill="#8dd3c7" stroke="black" points="211.43,-122 208.43,-126 187.43,-126 184.43,-122 112.57,-122 112.57,-86 211.43,-86 211.43,-122"/>
<text text-anchor="middle" x="162" y="-99.8" font-family="Times,serif" font-size="14.00">PrismaModule</text>
</g>
<!-- ResidentModule -->
<g id="node2" class="node">
<title>ResidentModule</title>
<polygon fill="#8dd3c7" stroke="black" points="289.04,-187 286.04,-191 265.04,-191 262.04,-187 180.96,-187 180.96,-151 289.04,-151 289.04,-187"/>
<text text-anchor="middle" x="235" y="-164.8" font-family="Times,serif" font-size="14.00">ResidentModule</text>
</g>
<!-- PrismaModule&#45;&gt;ResidentModule -->
<g id="edge1" class="edge">
<title>PrismaModule&#45;&gt;ResidentModule</title>
<path fill="none" stroke="black" d="M195.97,-122.11C195.97,-122.11 195.97,-140.99 195.97,-140.99"/>
<polygon fill="black" stroke="black" points="192.47,-140.99 195.97,-150.99 199.47,-140.99 192.47,-140.99"/>
</g>
<!-- ResidentService -->
<g id="node3" class="node">
<title>ResidentService</title>
<ellipse fill="#fdb462" stroke="black" cx="309" cy="-104" rx="73.57" ry="18"/>
<text text-anchor="middle" x="309" y="-99.8" font-family="Times,serif" font-size="14.00">ResidentService</text>
</g>
<!-- ResidentService&#45;&gt;ResidentModule -->
<g id="edge2" class="edge">
<title>ResidentService&#45;&gt;ResidentModule</title>
<path fill="none" stroke="black" d="M262.24,-118.1C262.24,-118.1 262.24,-140.72 262.24,-140.72"/>
<polygon fill="black" stroke="black" points="258.74,-140.72 262.24,-150.72 265.74,-140.72 258.74,-140.72"/>
</g>
</g>
</svg>
