<?xml version="1.0" encoding="UTF-8" standalone="no"?>
<!DOCTYPE svg PUBLIC "-//W3C//DTD SVG 1.1//EN"
 "http://www.w3.org/Graphics/SVG/1.1/DTD/svg11.dtd">
<!-- Generated by graphviz version 2.47.0 (20210316.0004)
 -->
<!-- Title: dependencies Pages: 1 -->
<svg width="504pt" height="284pt"
 viewBox="0.00 0.00 504.00 284.00" xmlns="http://www.w3.org/2000/svg" xmlns:xlink="http://www.w3.org/1999/xlink">
<g id="graph0" class="graph" transform="scale(1 1) rotate(0) translate(4 280)">
<title>dependencies</title>
<polygon fill="white" stroke="transparent" points="-4,4 -4,-280 500,-280 500,4 -4,4"/>
<text text-anchor="start" x="227.01" y="-42.4" font-family="Times-12" font-weight="bold" font-size="14.00">Legend</text>
<polygon fill="#ffffb3" stroke="transparent" points="14,-10 14,-30 34,-30 34,-10 14,-10"/>
<text text-anchor="start" x="37.63" y="-15.4" font-family="Times-12" font-size="14.00"> &#160;Declarations</text>
<polygon fill="#8dd3c7" stroke="transparent" points="127,-10 127,-30 147,-30 147,-10 127,-10"/>
<text text-anchor="start" x="150.73" y="-15.4" font-family="Times-12" font-size="14.00"> &#160;Module</text>
<polygon fill="#80b1d3" stroke="transparent" points="213,-10 213,-30 233,-30 233,-10 213,-10"/>
<text text-anchor="start" x="236.78" y="-15.4" font-family="Times-12" font-size="14.00"> &#160;Bootstrap</text>
<polygon fill="#fdb462" stroke="transparent" points="310,-10 310,-30 330,-30 330,-10 310,-10"/>
<text text-anchor="start" x="333.67" y="-15.4" font-family="Times-12" font-size="14.00"> &#160;Providers</text>
<polygon fill="#fb8072" stroke="transparent" points="406,-10 406,-30 426,-30 426,-10 406,-10"/>
<text text-anchor="start" x="429.73" y="-15.4" font-family="Times-12" font-size="14.00"> &#160;Exports</text>
<g id="clust1" class="cluster">
<title>cluster_ShiftModule</title>
<polygon fill="none" stroke="black" stroke-dasharray="1,5" points="112,-70 112,-268 384,-268 384,-70 112,-70"/>
</g>
<g id="clust6" class="cluster">
<title>cluster_ShiftModule_providers</title>
<polygon fill="none" stroke="black" points="242,-78 242,-130 376,-130 376,-78 242,-78"/>
</g>
<g id="clust3" class="cluster">
<title>cluster_ShiftModule_imports</title>
<polygon fill="none" stroke="black" points="120,-78 120,-130 234,-130 234,-78 120,-78"/>
</g>
<g id="clust4" class="cluster">
<title>cluster_ShiftModule_exports</title>
<polygon fill="none" stroke="black" points="191,-208 191,-260 295,-260 295,-208 191,-208"/>
</g>
<!-- PrismaModule -->
<g id="node1" class="node">
<title>PrismaModule</title>
<polygon fill="#8dd3c7" stroke="black" points="226.43,-122 223.43,-126 202.43,-126 199.43,-122 127.57,-122 127.57,-86 226.43,-86 226.43,-122"/>
<text text-anchor="middle" x="177" y="-99.8" font-family="Times,serif" font-size="14.00">PrismaModule</text>
</g>
<!-- ShiftModule -->
<g id="node2" class="node">
<title>ShiftModule</title>
<polygon fill="#8dd3c7" stroke="black" points="286.27,-187 283.27,-191 262.27,-191 259.27,-187 199.73,-187 199.73,-151 286.27,-151 286.27,-187"/>
<text text-anchor="middle" x="243" y="-164.8" font-family="Times,serif" font-size="14.00">ShiftModule</text>
</g>
<!-- PrismaModule&#45;&gt;ShiftModule -->
<g id="edge1" class="edge">
<title>PrismaModule&#45;&gt;ShiftModule</title>
<path fill="none" stroke="black" d="M212.91,-122.11C212.91,-122.11 212.91,-140.99 212.91,-140.99"/>
<polygon fill="black" stroke="black" points="209.41,-140.99 212.91,-150.99 216.41,-140.99 209.41,-140.99"/>
</g>
<!-- ShiftService  -->
<g id="node3" class="node">
<title>ShiftService </title>
<polygon fill="#fb8072" stroke="black" points="287.2,-252 198.8,-252 198.8,-216 287.2,-216 287.2,-252"/>
<text text-anchor="middle" x="243" y="-229.8" font-family="Times,serif" font-size="14.00">ShiftService </text>
</g>
<!-- ShiftModule&#45;&gt;ShiftService  -->
<g id="edge2" class="edge">
<title>ShiftModule&#45;&gt;ShiftService </title>
<path fill="none" stroke="black" stroke-dasharray="5,2" d="M243,-187.11C243,-187.11 243,-205.99 243,-205.99"/>
<polygon fill="black" stroke="black" points="239.5,-205.99 243,-215.99 246.5,-205.99 239.5,-205.99"/>
</g>
<!-- ShiftService -->
<g id="node4" class="node">
<title>ShiftService</title>
<ellipse fill="#fdb462" stroke="black" cx="309" cy="-104" rx="58.54" ry="18"/>
<text text-anchor="middle" x="309" y="-99.8" font-family="Times,serif" font-size="14.00">ShiftService</text>
</g>
<!-- ShiftService&#45;&gt;ShiftModule -->
<g id="edge3" class="edge">
<title>ShiftService&#45;&gt;ShiftModule</title>
<path fill="none" stroke="black" d="M268.31,-117.15C268.31,-117.15 268.31,-140.69 268.31,-140.69"/>
<polygon fill="black" stroke="black" points="264.81,-140.69 268.31,-150.69 271.81,-140.69 264.81,-140.69"/>
</g>
</g>
</svg>
