<?xml version="1.0" encoding="UTF-8" standalone="no"?>
<!DOCTYPE svg PUBLIC "-//W3C//DTD SVG 1.1//EN"
 "http://www.w3.org/Graphics/SVG/1.1/DTD/svg11.dtd">
<!-- Generated by graphviz version 2.47.0 (20210316.0004)
 -->
<!-- Title: dependencies Pages: 1 -->
<svg width="1473pt" height="211pt"
 viewBox="0.00 0.00 1473.00 211.00" xmlns="http://www.w3.org/2000/svg" xmlns:xlink="http://www.w3.org/1999/xlink">
<g id="graph0" class="graph" transform="scale(1 1) rotate(0) translate(4 207)">
<title>dependencies</title>
<polygon fill="white" stroke="transparent" points="-4,4 -4,-207 1469,-207 1469,4 -4,4"/>
<text text-anchor="start" x="711.51" y="-42.4" font-family="Times-12" font-weight="bold" font-size="14.00">Legend</text>
<polygon fill="#ffffb3" stroke="transparent" points="498.5,-10 498.5,-30 518.5,-30 518.5,-10 498.5,-10"/>
<text text-anchor="start" x="522.13" y="-15.4" font-family="Times-12" font-size="14.00"> &#160;Declarations</text>
<polygon fill="#8dd3c7" stroke="transparent" points="611.5,-10 611.5,-30 631.5,-30 631.5,-10 611.5,-10"/>
<text text-anchor="start" x="635.23" y="-15.4" font-family="Times-12" font-size="14.00"> &#160;Module</text>
<polygon fill="#80b1d3" stroke="transparent" points="697.5,-10 697.5,-30 717.5,-30 717.5,-10 697.5,-10"/>
<text text-anchor="start" x="721.28" y="-15.4" font-family="Times-12" font-size="14.00"> &#160;Bootstrap</text>
<polygon fill="#fdb462" stroke="transparent" points="794.5,-10 794.5,-30 814.5,-30 814.5,-10 794.5,-10"/>
<text text-anchor="start" x="818.17" y="-15.4" font-family="Times-12" font-size="14.00"> &#160;Providers</text>
<polygon fill="#fb8072" stroke="transparent" points="890.5,-10 890.5,-30 910.5,-30 910.5,-10 890.5,-10"/>
<text text-anchor="start" x="914.23" y="-15.4" font-family="Times-12" font-size="14.00"> &#160;Exports</text>
<g id="clust1" class="cluster">
<title>cluster_AppModule</title>
<polygon fill="none" stroke="black" stroke-dasharray="1,5" points="8,-70 8,-195 1457,-195 1457,-70 8,-70"/>
</g>
<g id="clust3" class="cluster">
<title>cluster_AppModule_imports</title>
<polygon fill="none" stroke="black" points="154,-78 154,-130 1449,-130 1449,-78 154,-78"/>
</g>
<g id="clust6" class="cluster">
<title>cluster_AppModule_providers</title>
<polygon fill="none" stroke="black" points="16,-78 16,-130 146,-130 146,-78 16,-78"/>
</g>
<!-- ApartmentModule -->
<g id="node1" class="node">
<title>ApartmentModule</title>
<polygon fill="#8dd3c7" stroke="black" points="1440.92,-122 1437.92,-126 1416.92,-126 1413.92,-122 1321.08,-122 1321.08,-86 1440.92,-86 1440.92,-122"/>
<text text-anchor="middle" x="1381" y="-99.8" font-family="Times,serif" font-size="14.00">ApartmentModule</text>
</g>
<!-- AppModule -->
<g id="node11" class="node">
<title>AppModule</title>
<polygon fill="#8dd3c7" stroke="black" points="793.66,-187 790.66,-191 769.66,-191 766.66,-187 710.34,-187 710.34,-151 793.66,-151 793.66,-187"/>
<text text-anchor="middle" x="752" y="-164.8" font-family="Times,serif" font-size="14.00">AppModule</text>
</g>
<!-- ApartmentModule&#45;&gt;AppModule -->
<g id="edge1" class="edge">
<title>ApartmentModule&#45;&gt;AppModule</title>
<path fill="none" stroke="black" d="M1381,-122.09C1381,-145.13 1381,-182 1381,-182 1381,-182 803.76,-182 803.76,-182"/>
<polygon fill="black" stroke="black" points="803.76,-178.5 793.76,-182 803.76,-185.5 803.76,-178.5"/>
</g>
<!-- AuthModule -->
<g id="node2" class="node">
<title>AuthModule</title>
<polygon fill="#8dd3c7" stroke="black" points="1303.55,-122 1300.55,-126 1279.55,-126 1276.55,-122 1216.45,-122 1216.45,-86 1303.55,-86 1303.55,-122"/>
<text text-anchor="middle" x="1260" y="-99.8" font-family="Times,serif" font-size="14.00">AuthModule</text>
</g>
<!-- AuthModule&#45;&gt;AppModule -->
<g id="edge2" class="edge">
<title>AuthModule&#45;&gt;AppModule</title>
<path fill="none" stroke="black" d="M1260,-122.28C1260,-143.32 1260,-175 1260,-175 1260,-175 804,-175 804,-175"/>
<polygon fill="black" stroke="black" points="804,-171.5 794,-175 804,-178.5 804,-171.5"/>
</g>
<!-- ComplainModule -->
<g id="node3" class="node">
<title>ComplainModule</title>
<polygon fill="#8dd3c7" stroke="black" points="1198.27,-122 1195.27,-126 1174.27,-126 1171.27,-122 1083.73,-122 1083.73,-86 1198.27,-86 1198.27,-122"/>
<text text-anchor="middle" x="1141" y="-99.8" font-family="Times,serif" font-size="14.00">ComplainModule</text>
</g>
<!-- ComplainModule&#45;&gt;AppModule -->
<g id="edge3" class="edge">
<title>ComplainModule&#45;&gt;AppModule</title>
<path fill="none" stroke="black" d="M1141,-122.11C1141,-141.34 1141,-169 1141,-169 1141,-169 804,-169 804,-169"/>
<polygon fill="black" stroke="black" points="804,-165.5 794,-169 804,-172.5 804,-165.5"/>
</g>
<!-- InvoiceModule -->
<g id="node4" class="node">
<title>InvoiceModule</title>
<polygon fill="#8dd3c7" stroke="black" points="1065.53,-122 1062.53,-126 1041.53,-126 1038.53,-122 964.47,-122 964.47,-86 1065.53,-86 1065.53,-122"/>
<text text-anchor="middle" x="1015" y="-99.8" font-family="Times,serif" font-size="14.00">InvoiceModule</text>
</g>
<!-- InvoiceModule&#45;&gt;AppModule -->
<g id="edge4" class="edge">
<title>InvoiceModule&#45;&gt;AppModule</title>
<path fill="none" stroke="black" d="M1015,-122.02C1015,-139.37 1015,-163 1015,-163 1015,-163 803.67,-163 803.67,-163"/>
<polygon fill="black" stroke="black" points="803.67,-159.5 793.67,-163 803.67,-166.5 803.67,-159.5"/>
</g>
<!-- NotificationModule -->
<g id="node5" class="node">
<title>NotificationModule</title>
<polygon fill="#8dd3c7" stroke="black" points="946.7,-122 943.7,-126 922.7,-126 919.7,-122 819.3,-122 819.3,-86 946.7,-86 946.7,-122"/>
<text text-anchor="middle" x="883" y="-99.8" font-family="Times,serif" font-size="14.00">NotificationModule</text>
</g>
<!-- NotificationModule&#45;&gt;AppModule -->
<g id="edge5" class="edge">
<title>NotificationModule&#45;&gt;AppModule</title>
<path fill="none" stroke="black" d="M883,-122.24C883,-137.57 883,-157 883,-157 883,-157 803.81,-157 803.81,-157"/>
<polygon fill="black" stroke="black" points="803.81,-153.5 793.81,-157 803.81,-160.5 803.81,-153.5"/>
</g>
<!-- PrismaModule -->
<g id="node6" class="node">
<title>PrismaModule</title>
<polygon fill="#8dd3c7" stroke="black" points="801.43,-122 798.43,-126 777.43,-126 774.43,-122 702.57,-122 702.57,-86 801.43,-86 801.43,-122"/>
<text text-anchor="middle" x="752" y="-99.8" font-family="Times,serif" font-size="14.00">PrismaModule</text>
</g>
<!-- PrismaModule&#45;&gt;AppModule -->
<g id="edge6" class="edge">
<title>PrismaModule&#45;&gt;AppModule</title>
<path fill="none" stroke="black" d="M752,-122.11C752,-122.11 752,-140.99 752,-140.99"/>
<polygon fill="black" stroke="black" points="748.5,-140.99 752,-150.99 755.5,-140.99 748.5,-140.99"/>
</g>
<!-- ResidentModule -->
<g id="node7" class="node">
<title>ResidentModule</title>
<polygon fill="#8dd3c7" stroke="black" points="685.04,-122 682.04,-126 661.04,-126 658.04,-122 576.96,-122 576.96,-86 685.04,-86 685.04,-122"/>
<text text-anchor="middle" x="631" y="-99.8" font-family="Times,serif" font-size="14.00">ResidentModule</text>
</g>
<!-- ResidentModule&#45;&gt;AppModule -->
<g id="edge7" class="edge">
<title>ResidentModule&#45;&gt;AppModule</title>
<path fill="none" stroke="black" d="M631,-122.24C631,-137.57 631,-157 631,-157 631,-157 700.02,-157 700.02,-157"/>
<polygon fill="black" stroke="black" points="700.02,-160.5 710.02,-157 700.02,-153.5 700.02,-160.5"/>
</g>
<!-- ResidentnotificationModule -->
<g id="node8" class="node">
<title>ResidentnotificationModule</title>
<polygon fill="#8dd3c7" stroke="black" points="558.58,-122 555.58,-126 534.58,-126 531.58,-122 385.42,-122 385.42,-86 558.58,-86 558.58,-122"/>
<text text-anchor="middle" x="472" y="-99.8" font-family="Times,serif" font-size="14.00">ResidentnotificationModule</text>
</g>
<!-- ResidentnotificationModule&#45;&gt;AppModule -->
<g id="edge8" class="edge">
<title>ResidentnotificationModule&#45;&gt;AppModule</title>
<path fill="none" stroke="black" d="M472,-122.02C472,-139.37 472,-163 472,-163 472,-163 700.08,-163 700.08,-163"/>
<polygon fill="black" stroke="black" points="700.08,-166.5 710.08,-163 700.08,-159.5 700.08,-166.5"/>
</g>
<!-- ServiceModule -->
<g id="node9" class="node">
<title>ServiceModule</title>
<polygon fill="#8dd3c7" stroke="black" points="367.53,-122 364.53,-126 343.53,-126 340.53,-122 266.47,-122 266.47,-86 367.53,-86 367.53,-122"/>
<text text-anchor="middle" x="317" y="-99.8" font-family="Times,serif" font-size="14.00">ServiceModule</text>
</g>
<!-- ServiceModule&#45;&gt;AppModule -->
<g id="edge9" class="edge">
<title>ServiceModule&#45;&gt;AppModule</title>
<path fill="none" stroke="black" d="M317,-122.11C317,-141.34 317,-169 317,-169 317,-169 700.29,-169 700.29,-169"/>
<polygon fill="black" stroke="black" points="700.29,-172.5 710.29,-169 700.29,-165.5 700.29,-172.5"/>
</g>
<!-- ShiftModule -->
<g id="node10" class="node">
<title>ShiftModule</title>
<polygon fill="#8dd3c7" stroke="black" points="248.27,-122 245.27,-126 224.27,-126 221.27,-122 161.73,-122 161.73,-86 248.27,-86 248.27,-122"/>
<text text-anchor="middle" x="205" y="-99.8" font-family="Times,serif" font-size="14.00">ShiftModule</text>
</g>
<!-- ShiftModule&#45;&gt;AppModule -->
<g id="edge10" class="edge">
<title>ShiftModule&#45;&gt;AppModule</title>
<path fill="none" stroke="black" d="M205,-122.28C205,-143.32 205,-175 205,-175 205,-175 699.99,-175 699.99,-175"/>
<polygon fill="black" stroke="black" points="699.99,-178.5 709.99,-175 699.99,-171.5 699.99,-178.5"/>
</g>
<!-- AppService -->
<g id="node12" class="node">
<title>AppService</title>
<ellipse fill="#fdb462" stroke="black" cx="81" cy="-104" rx="56.74" ry="18"/>
<text text-anchor="middle" x="81" y="-99.8" font-family="Times,serif" font-size="14.00">AppService</text>
</g>
<!-- AppService&#45;&gt;AppModule -->
<g id="edge11" class="edge">
<title>AppService&#45;&gt;AppModule</title>
<path fill="none" stroke="black" d="M81,-122.09C81,-145.13 81,-182 81,-182 81,-182 700.28,-182 700.28,-182"/>
<polygon fill="black" stroke="black" points="700.28,-185.5 710.28,-182 700.28,-178.5 700.28,-185.5"/>
</g>
</g>
</svg>
