<?xml version="1.0" encoding="UTF-8" standalone="no"?>
<!DOCTYPE svg PUBLIC "-//W3C//DTD SVG 1.1//EN"
 "http://www.w3.org/Graphics/SVG/1.1/DTD/svg11.dtd">
<!-- Generated by graphviz version 2.47.0 (20210316.0004)
 -->
<!-- Title: dependencies Pages: 1 -->
<svg width="504pt" height="211pt"
 viewBox="0.00 0.00 504.00 211.00" xmlns="http://www.w3.org/2000/svg" xmlns:xlink="http://www.w3.org/1999/xlink">
<g id="graph0" class="graph" transform="scale(1 1) rotate(0) translate(4 207)">
<title>dependencies</title>
<polygon fill="white" stroke="transparent" points="-4,4 -4,-207 500,-207 500,4 -4,4"/>
<text text-anchor="start" x="227.01" y="-42.4" font-family="Times-12" font-weight="bold" font-size="14.00">Legend</text>
<polygon fill="#ffffb3" stroke="transparent" points="14,-10 14,-30 34,-30 34,-10 14,-10"/>
<text text-anchor="start" x="37.63" y="-15.4" font-family="Times-12" font-size="14.00"> &#160;Declarations</text>
<polygon fill="#8dd3c7" stroke="transparent" points="127,-10 127,-30 147,-30 147,-10 127,-10"/>
<text text-anchor="start" x="150.73" y="-15.4" font-family="Times-12" font-size="14.00"> &#160;Module</text>
<polygon fill="#80b1d3" stroke="transparent" points="213,-10 213,-30 233,-30 233,-10 213,-10"/>
<text text-anchor="start" x="236.78" y="-15.4" font-family="Times-12" font-size="14.00"> &#160;Bootstrap</text>
<polygon fill="#fdb462" stroke="transparent" points="310,-10 310,-30 330,-30 330,-10 310,-10"/>
<text text-anchor="start" x="333.67" y="-15.4" font-family="Times-12" font-size="14.00"> &#160;Providers</text>
<polygon fill="#fb8072" stroke="transparent" points="406,-10 406,-30 426,-30 426,-10 406,-10"/>
<text text-anchor="start" x="429.73" y="-15.4" font-family="Times-12" font-size="14.00"> &#160;Exports</text>
<g id="clust1" class="cluster">
<title>cluster_ComplainModule</title>
<polygon fill="none" stroke="black" stroke-dasharray="1,5" points="93,-70 93,-195 403,-195 403,-70 93,-70"/>
</g>
<g id="clust3" class="cluster">
<title>cluster_ComplainModule_imports</title>
<polygon fill="none" stroke="black" points="281,-78 281,-130 395,-130 395,-78 281,-78"/>
</g>
<g id="clust6" class="cluster">
<title>cluster_ComplainModule_providers</title>
<polygon fill="none" stroke="black" points="101,-78 101,-130 273,-130 273,-78 101,-78"/>
</g>
<!-- PrismaModule -->
<g id="node1" class="node">
<title>PrismaModule</title>
<polygon fill="#8dd3c7" stroke="black" points="387.43,-122 384.43,-126 363.43,-126 360.43,-122 288.57,-122 288.57,-86 387.43,-86 387.43,-122"/>
<text text-anchor="middle" x="338" y="-99.8" font-family="Times,serif" font-size="14.00">PrismaModule</text>
</g>
<!-- ComplainModule -->
<g id="node2" class="node">
<title>ComplainModule</title>
<polygon fill="#8dd3c7" stroke="black" points="319.27,-187 316.27,-191 295.27,-191 292.27,-187 204.73,-187 204.73,-151 319.27,-151 319.27,-187"/>
<text text-anchor="middle" x="262" y="-164.8" font-family="Times,serif" font-size="14.00">ComplainModule</text>
</g>
<!-- PrismaModule&#45;&gt;ComplainModule -->
<g id="edge1" class="edge">
<title>PrismaModule&#45;&gt;ComplainModule</title>
<path fill="none" stroke="black" d="M304.08,-122.11C304.08,-122.11 304.08,-140.99 304.08,-140.99"/>
<polygon fill="black" stroke="black" points="300.58,-140.99 304.08,-150.99 307.58,-140.99 300.58,-140.99"/>
</g>
<!-- ComplainService -->
<g id="node3" class="node">
<title>ComplainService</title>
<ellipse fill="#fdb462" stroke="black" cx="187" cy="-104" rx="78.17" ry="18"/>
<text text-anchor="middle" x="187" y="-99.8" font-family="Times,serif" font-size="14.00">ComplainService</text>
</g>
<!-- ComplainService&#45;&gt;ComplainModule -->
<g id="edge2" class="edge">
<title>ComplainService&#45;&gt;ComplainModule</title>
<path fill="none" stroke="black" d="M234.85,-118.43C234.85,-118.43 234.85,-140.89 234.85,-140.89"/>
<polygon fill="black" stroke="black" points="231.35,-140.89 234.85,-150.89 238.35,-140.89 231.35,-140.89"/>
</g>
</g>
</svg>
