<?xml version="1.0" encoding="UTF-8" standalone="no"?>
<!DOCTYPE svg PUBLIC "-//W3C//DTD SVG 1.1//EN"
 "http://www.w3.org/Graphics/SVG/1.1/DTD/svg11.dtd">
<!-- Generated by graphviz version 2.47.0 (20210316.0004)
 -->
<!-- Title: dependencies Pages: 1 -->
<svg width="504pt" height="211pt"
 viewBox="0.00 0.00 504.00 211.00" xmlns="http://www.w3.org/2000/svg" xmlns:xlink="http://www.w3.org/1999/xlink">
<g id="graph0" class="graph" transform="scale(1 1) rotate(0) translate(4 207)">
<title>dependencies</title>
<polygon fill="white" stroke="transparent" points="-4,4 -4,-207 500,-207 500,4 -4,4"/>
<text text-anchor="start" x="227.01" y="-42.4" font-family="Times-12" font-weight="bold" font-size="14.00">Legend</text>
<polygon fill="#ffffb3" stroke="transparent" points="14,-10 14,-30 34,-30 34,-10 14,-10"/>
<text text-anchor="start" x="37.63" y="-15.4" font-family="Times-12" font-size="14.00"> &#160;Declarations</text>
<polygon fill="#8dd3c7" stroke="transparent" points="127,-10 127,-30 147,-30 147,-10 127,-10"/>
<text text-anchor="start" x="150.73" y="-15.4" font-family="Times-12" font-size="14.00"> &#160;Module</text>
<polygon fill="#80b1d3" stroke="transparent" points="213,-10 213,-30 233,-30 233,-10 213,-10"/>
<text text-anchor="start" x="236.78" y="-15.4" font-family="Times-12" font-size="14.00"> &#160;Bootstrap</text>
<polygon fill="#fdb462" stroke="transparent" points="310,-10 310,-30 330,-30 330,-10 310,-10"/>
<text text-anchor="start" x="333.67" y="-15.4" font-family="Times-12" font-size="14.00"> &#160;Providers</text>
<polygon fill="#fb8072" stroke="transparent" points="406,-10 406,-30 426,-30 426,-10 406,-10"/>
<text text-anchor="start" x="429.73" y="-15.4" font-family="Times-12" font-size="14.00"> &#160;Exports</text>
<g id="clust1" class="cluster">
<title>cluster_ApartmentModule</title>
<polygon fill="none" stroke="black" stroke-dasharray="1,5" points="90,-70 90,-195 406,-195 406,-70 90,-70"/>
</g>
<g id="clust3" class="cluster">
<title>cluster_ApartmentModule_imports</title>
<polygon fill="none" stroke="black" points="284,-78 284,-130 398,-130 398,-78 284,-78"/>
</g>
<g id="clust6" class="cluster">
<title>cluster_ApartmentModule_providers</title>
<polygon fill="none" stroke="black" points="98,-78 98,-130 276,-130 276,-78 98,-78"/>
</g>
<!-- PrismaModule -->
<g id="node1" class="node">
<title>PrismaModule</title>
<polygon fill="#8dd3c7" stroke="black" points="390.43,-122 387.43,-126 366.43,-126 363.43,-122 291.57,-122 291.57,-86 390.43,-86 390.43,-122"/>
<text text-anchor="middle" x="341" y="-99.8" font-family="Times,serif" font-size="14.00">PrismaModule</text>
</g>
<!-- ApartmentModule -->
<g id="node2" class="node">
<title>ApartmentModule</title>
<polygon fill="#8dd3c7" stroke="black" points="321.92,-187 318.92,-191 297.92,-191 294.92,-187 202.08,-187 202.08,-151 321.92,-151 321.92,-187"/>
<text text-anchor="middle" x="262" y="-164.8" font-family="Times,serif" font-size="14.00">ApartmentModule</text>
</g>
<!-- PrismaModule&#45;&gt;ApartmentModule -->
<g id="edge1" class="edge">
<title>PrismaModule&#45;&gt;ApartmentModule</title>
<path fill="none" stroke="black" d="M306.75,-122.11C306.75,-122.11 306.75,-140.99 306.75,-140.99"/>
<polygon fill="black" stroke="black" points="303.25,-140.99 306.75,-150.99 310.25,-140.99 303.25,-140.99"/>
</g>
<!-- ApartmentService -->
<g id="node3" class="node">
<title>ApartmentService</title>
<ellipse fill="#fdb462" stroke="black" cx="187" cy="-104" rx="81.08" ry="18"/>
<text text-anchor="middle" x="187" y="-99.8" font-family="Times,serif" font-size="14.00">ApartmentService</text>
</g>
<!-- ApartmentService&#45;&gt;ApartmentModule -->
<g id="edge2" class="edge">
<title>ApartmentService&#45;&gt;ApartmentModule</title>
<path fill="none" stroke="black" d="M235.29,-118.75C235.29,-118.75 235.29,-140.59 235.29,-140.59"/>
<polygon fill="black" stroke="black" points="231.79,-140.59 235.29,-150.59 238.79,-140.59 231.79,-140.59"/>
</g>
</g>
</svg>
